HIERARCHY
ROOT pelvis
{
  OFFSET 0 100 0
  CHANNELS 6 Xposition Yposition Zposition Zrotation Xrotation Yrotation
  JOINT pelvis_right_femur
  {
    OFFSET -10.78128 -3.44521 -0.5502486
    CHANNELS 3 Zrotation Xrotation Yrotation
    JOINT right_femur_tibia
    {
      OFFSET -0.8047443 -44.0398 -0.1307829
      CHANNELS 3 Zrotation Xrotation Yrotation
      JOINT right_tibia_foot
      {
        OFFSET 3.006224 -47.83518 -5
        CHANNELS 3 Zrotation Xrotation Yrotation
        End Site
        {
          OFFSET 0 -5 15
        }
      }
    }
  }
  JOINT pelvis_left_femur
  {
    OFFSET 10.78128 -3.44521 -0.5502486
    CHANNELS 3 Zrotation Xrotation Yrotation
    JOINT left_femur_tibia
    {
      OFFSET 0.8047443 -44.0398 -0.1307829
      CHANNELS 3 Zrotation Xrotation Yrotation
      JOINT left_tibia_foot
      {
        OFFSET -4.370144 -48.10324 -4.275266
        CHANNELS 3 Zrotation Xrotation Yrotation
        End Site
        {
          OFFSET 0 -5 15
        }
      }
    }
  }
  JOINT pelvis_spine1
  {
    OFFSET 0 6.468898 -3.129235
    CHANNELS 3 Zrotation Xrotation Yrotation
    JOINT spine1
    {
      OFFSET 0 23.15396 4.99043
      CHANNELS 3 Zrotation Xrotation Yrotation
      JOINT spine2
      {
        OFFSET 0 20.79997 -5.064912
        CHANNELS 3 Zrotation Xrotation Yrotation
        JOINT neck
        {
          OFFSET 0 14.38658 9.616178
          CHANNELS 3 Zrotation Xrotation Yrotation
          End Site
          {
            OFFSET 0 20 0
          }
        }
      }
      JOINT right_manubrium
      {
        OFFSET -5.722621 16.35077 3.967754
        CHANNELS 3 Zrotation Xrotation Yrotation
        JOINT right_clavicle
        {
          OFFSET -13.16364 1.694482 -4.693211
          CHANNELS 3 Zrotation Xrotation Yrotation
          JOINT right_humerus
          {
            OFFSET -28.5034 -0.3100689 -2.792744
            CHANNELS 3 Zrotation Xrotation Yrotation
            JOINT right_radius
            {
              OFFSET -25.15693 0.02248979 -1.271978
              CHANNELS 3 Zrotation Xrotation Yrotation
              End Site
              {
                OFFSET -15 0 0
              }
            }
          }
        }
      }
      JOINT left_manubrium
      {
        OFFSET 5.722621 16.35077 3.967754
        CHANNELS 3 Zrotation Xrotation Yrotation
        JOINT left_clavicle
        {
          OFFSET 13.16364 1.694482 -4.693211
          CHANNELS 3 Zrotation Xrotation Yrotation
          JOINT left_humerus
          {
            OFFSET 29.39168 -1.063119 -2.237045
            CHANNELS 3 Zrotation Xrotation Yrotation
            JOINT left_radius
            {
              OFFSET 24.59957 -0.9528479 0.9047498
              CHANNELS 3 Zrotation Xrotation Yrotation
              End Site
              {
                OFFSET 15 -0 -0
              }
            }
          }
        }
      }
    }
  }
}
MOTION
Frames: 17
Frame Time: 0.0416666666667
-519.4329 98.25353 2851.15 -2.359288 -5.058845 -29.62931 0.7611888 -22.50506 -3.671192 -0 22.55115 -0 -9.609811 3.707197 -0.5846041 -5.12512 11.9643 -12.00672 -0 8.858334 -0 0.2571023 -19.29036 15.05436 -0.7925504 -1.361654 4.40009 -0.7808791 14.80381 -6.719844 0.2336 21.84039 5.953563 6.827434 -17.47929 2.674806 1.749903 -20.02145 11.95741 89.54538 24.37322 -18.72732 -0 0 14.97344 -24.43709 9.835132 7.562185 8.326053 -27.6373 -9.596211 -88.09532 7.654006 14.62488 0 0 -15.97194 18.1369 13.46705 -11.61378
-521.6362 96.88034 2855.445 -1.354108 -3.835202 -29.27709 0.873086 -25.61521 -4.188588 -0 15.24002 -0 -8.614696 2.607465 -0.9448928 -5.571267 13.42742 -11.54417 -0 9.190016 -0 0.8425082 -20.66538 14.60543 -0.9463513 -1.464616 4.339553 -0.717062 14.77245 -7.038619 0.08727487 21.7118 6.064053 6.86515 -17.55141 2.600142 1.745752 -20.00969 11.88979 89.94265 24.74359 -19.50966 -0 0 14.76517 -24.12806 9.541754 7.272292 8.621403 -28.00896 -9.611551 -87.29647 7.3656 13.56541 0 0 -18.41805 18.56733 13.02334 -12.22048
-524.0547 95.41436 2859.971 -0.5804497 -2.749479 -28.94766 1.244706 -28.08184 -4.411914 -0 9.838678 -0 -7.927561 2.587843 -1.14804 -5.941796 14.65783 -10.84993 -0 10.86173 -0 1.632725 -21.25346 14.34681 -1.086155 -1.539273 4.330964 -0.668446 14.71958 -7.267057 -0.02538405 21.60108 6.156002 6.886624 -17.62517 2.564139 1.746417 -20.0508 11.82259 90.22309 25.14865 -20.04045 -0 0 14.69295 -23.8092 9.291491 7.021956 8.841731 -28.25964 -9.573611 -86.72764 7.152704 12.86393 0 0 -20.23893 18.87518 12.64363 -12.6396
-526.7375 94.0322 2864.825 -0.2102914 -1.975694 -28.62443 1.932935 -29.67713 -4.324027 -0 6.600051 -0 -7.638675 3.365648 -1.223541 -6.108273 15.68713 -9.992194 -0 14.10981 -0 2.275261 -20.88181 14.09015 -1.19692 -1.575831 4.354473 -0.6355056 14.65766 -7.403005 -0.09032988 21.52168 6.214739 6.890845 -17.70564 2.566749 1.75374 -20.11231 11.7596 90.38372 25.54875 -20.31892 -0 0 14.71712 -23.51511 9.106541 6.8146 8.975939 -28.37979 -9.493834 -86.40214 7.035459 12.49784 0 0 -21.3103 19.06948 12.37013 -12.88461
-529.7134 92.92228 2870.063 -0.3315887 -1.620983 -28.32678 2.964299 -30.06249 -3.882862 -0 5.598805 -0 -7.78436 4.456055 -1.258031 -5.980151 16.39824 -9.060055 -0 19.15127 -0 2.469897 -19.42961 13.69077 -1.266329 -1.572915 4.397306 -0.6176977 14.60027 -7.450249 -0.1027728 21.47863 6.231072 6.87982 -17.7918 2.599699 1.766756 -20.17518 11.70619 90.42689 25.89592 -20.35924 -0 0 14.81154 -23.27806 9.000373 6.654024 9.018977 -28.37631 -9.389004 -86.32337 7.015014 12.44795 0 0 -21.578 19.1543 12.22779 -12.96574
-532.9671 92.27938 2875.66 -0.9239917 -1.688925 -28.12936 4.307252 -28.90565 -3.038945 -0 6.664226 -0 -8.330401 5.227624 -1.389764 -5.524956 16.4713 -8.151189 -0 26.08038 -0 2.105288 -16.88163 13.13663 -1.28481 -1.534733 4.454972 -0.6154941 14.56022 -7.413312 -0.06475713 21.47046 6.201454 6.858532 -17.87666 2.649898 1.781751 -20.23318 11.66851 90.35761 26.13937 -20.18069 -0 0 14.96485 -23.12717 8.979309 6.545835 8.971131 -28.26686 -9.277614 -86.49197 7.078776 12.70683 0 0 -21.03718 19.12627 12.22771 -12.88498
-536.4165 92.2647 2881.484 -1.829138 -2.060311 -28.14776 5.797528 -26.06044 -1.836591 -0 9.182835 -0 -9.165896 5.067779 -1.742377 -4.803612 15.3971 -7.355254 -0 34.66926 -0 1.322213 -13.45396 12.55921 -1.245627 -1.469037 4.531605 -0.6312591 14.54782 -7.294041 0.01648619 21.49108 6.128563 6.834335 -17.9474 2.702856 1.792637 -20.29227 11.65323 90.18193 26.23127 -19.80108 -0 0 15.18002 -23.08619 9.044189 6.498876 8.836736 -28.07479 -9.177405 -86.90945 7.205885 13.28408 0 0 -19.71964 18.97357 12.36854 -12.63265
-539.9146 92.92858 2887.31 -2.752574 -2.546793 -28.47551 7.093635 -21.73424 -0.5179589 -0 11.99183 -0 -10.11764 3.688084 -2.29102 -3.991291 12.64598 -6.73259 -0 44.14028 -0 0.4389694 -9.70812 12.1362 -1.14606 -1.386896 4.640444 -0.6685286 14.56951 -7.091104 0.128415 21.53023 6.022554 6.815619 -17.98598 2.745407 1.7916 -20.37261 11.66733 89.90646 26.13386 -19.23445 -0 0 15.47545 -23.16827 9.190432 6.526092 8.622693 -27.82606 -9.103979 -87.57675 7.370708 14.20851 0 0 -17.6982 18.67632 12.63307 -12.18578
-543.2948 94.14214 2892.908 -3.358224 -3.036933 -29.10615 7.779977 -16.45779 0.5303361 -0 13.70915 -0 -10.96814 1.374721 -2.785226 -3.308161 7.998206 -6.301589 -0 53.08359 -0 -0.2490772 -6.453103 11.96692 -0.990219 -1.304416 4.803821 -0.7289146 14.6265 -6.803558 0.2514138 21.57262 5.901917 6.808991 -17.97069 2.767354 1.77069 -20.51305 11.71789 89.53842 25.82914 -18.49287 -0 0 15.88848 -23.36645 9.406268 6.643985 8.336228 -27.54717 -9.069917 -88.48707 7.543988 15.52562 0 0 -15.10716 18.20904 12.9801 -11.51005
-546.4448 95.61053 2898.14 -3.461751 -3.589215 -29.91503 7.625686 -10.78709 1.038393 -0 13.52196 -0 -11.4951 -1.182603 -2.91759 -2.835689 1.810724 -6.023109 -0 59.67791 -0 -0.6373623 -4.341332 12.06749 -0.7926645 -1.245287 5.050045 -0.8061077 14.71324 -6.43912 0.3570228 21.59673 5.791397 6.814284 -17.87913 2.761544 1.72558 -20.77388 11.81125 89.08431 25.32972 -17.5913 -0 0 16.47834 -23.64171 9.671012 6.869532 7.981064 -27.26193 -9.083626 -89.61346 7.69276 17.28614 0 0 -12.16518 17.5465 13.3366 -10.56815
-549.346 96.9728 2902.984 -3.177923 -4.286132 -30.72808 6.819627 -5.086097 1.076957 -0 11.74381 -0 -11.60493 -3.481753 -2.628656 -2.370238 -5.075855 -5.761235 -0 62.17513 -0 -0.7683539 -3.463095 12.46261 -0.5800383 -1.241229 5.403858 -0.8787115 14.81574 -6.024883 0.4093141 21.57591 5.714474 6.818619 -17.69188 2.722143 1.661914 -21.22898 11.95107 88.54663 24.68556 -16.55387 -0 0 17.32021 -23.91604 9.957036 7.214148 7.553019 -26.98519 -9.147196 -90.89508 7.781657 19.52073 0 0 -9.174202 16.67417 13.60078 -9.337238
-552.0404 97.91103 2907.497 -2.836774 -4.997902 -31.4247 5.918147 0.2940214 0.9301223 -0 9.470039 -0 -11.42924 -5.577785 -2.133578 -1.524571 -11.71513 -5.286744 -0 59.49143 -0 -0.6540769 -3.376206 13.17325 -0.3871902 -1.326226 5.870522 -0.9079553 14.91069 -5.612868 0.3725497 21.48481 5.682025 6.79433 -17.39593 2.642649 1.601325 -21.93919 12.13554 87.9211 23.97929 -15.41906 -0 0 18.47971 -24.08287 10.23743 7.676545 7.039758 -26.71512 -9.253343 -92.23055 7.779463 22.2014 0 0 -6.47155 15.60211 13.66622 -7.833278
-554.5772 98.22252 2911.786 -2.721575 -5.400698 -31.99117 5.467638 4.843279 0.7895583 -0 7.746444 -0 -11.16904 -7.811895 -1.649978 -0.05271047 -17.3415 -4.396683 -0 51.7714 -0 -0.2431103 -3.506284 14.08973 -0.2472034 -1.522645 6.421115 -0.8484448 14.9676 -5.270023 0.2251469 21.3118 5.684954 6.70691 -16.98896 2.517843 1.579761 -22.91177 12.35486 87.20112 23.30791 -14.23995 -0 0 19.96793 -24.04356 10.49548 8.238499 6.431004 -26.43079 -9.382956 -93.48907 7.673279 25.20321 0 0 -4.339054 14.37806 13.46519 -6.132303
-556.9996 97.86615 2916.018 -2.886986 -5.242806 -32.48038 5.628678 8.151712 0.7024136 -0 7.117934 -0 -10.86652 -10.32645 -1.252826 1.882354 -21.44376 -3.090558 -0 40.63149 -0 0.4357589 -3.48065 14.95986 -0.179807 -1.824028 6.991646 -0.6734114 14.95706 -5.049733 -0.0253155 21.07232 5.699257 6.533582 -16.48783 2.352519 1.631848 -24.06936 12.59037 86.39333 22.75725 -13.07654 -0 0 21.69797 -23.76036 10.72779 8.866234 5.73915 -26.10199 -9.506028 -94.545 7.484553 28.29252 0 0 -2.908404 13.09241 13.01131 -4.373938
-559.3608 96.97153 2920.394 -3.188776 -4.56069 -32.94484 6.103614 10.28287 0.692628 -0 7.66908 -0 -10.40382 -12.89595 -0.9374349 3.722739 -23.80438 -1.681856 -0 28.72694 -0 1.165306 -3.214866 15.56643 -0.1846234 -2.186187 7.502615 -0.4006429 14.86377 -4.959882 -0.335729 20.81204 5.702514 6.28238 -15.93898 2.171378 1.766452 -25.25597 12.8159 85.53692 22.38043 -11.9839 -0 0 23.47816 -23.2931 10.93752 9.515265 5.017469 -25.71075 -9.588551 -95.32363 7.271323 31.16374 0 0 -2.118478 11.86747 12.41194 -2.736517
-561.7286 95.78473 2925.108 -3.43006 -3.671037 -33.42274 6.36584 11.81692 0.7491442 -0 9.186318 -0 -9.697691 -15.07831 -0.670217 4.81067 -24.58085 -0.7294601 -0 18.72068 -0 1.582356 -2.846026 15.90729 -0.2425918 -2.537316 7.889624 -0.09566966 14.69781 -4.95464 -0.638263 20.59195 5.689055 5.996318 -15.41742 2.017161 1.952759 -26.28663 13.00214 84.7099 22.18848 -11.00716 -0 0 25.06105 -22.7836 11.12344 10.13462 4.35626 -25.27151 -9.605177 -95.82726 7.106035 33.51955 0 0 -1.760578 10.82965 11.83165 -1.388744
-564.1732 94.57114 2930.292 -3.488929 -2.987589 -33.95241 5.987435 13.51715 0.7584402 -0 11.32184 -0 -8.867187 -16.42578 -0.3861666 4.767114 -24.27015 -0.7766172 -0 12.23012 -0 1.356559 -2.603118 16.20519 -0.3243834 -2.805144 8.124681 0.1573589 14.49401 -4.962316 -0.8663349 20.46219 5.670816 5.736284 -15.00471 1.932315 2.133392 -27.01384 13.12492 84.01023 22.15563 -10.18719 -0 0 26.22759 -22.38774 11.2751 10.67098 3.850721 -24.83288 -9.551308 -96.11801 7.041711 35.15707 0 0 -1.590366 10.07491 11.4216 -0.4412873
